<?xml version="1.0" standalone="no"?>
<!DOCTYPE svg PUBLIC "-//W3C//DTD SVG 20010904//EN"
 "http://www.w3.org/TR/2001/REC-SVG-20010904/DTD/svg10.dtd">
<svg version="1.0" xmlns="http://www.w3.org/2000/svg"
 width="600.000000pt" height="390.000000pt" viewBox="0 0 600.000000 390.000000"
 preserveAspectRatio="xMidYMid meet">
<metadata>
Created by potrace 1.16, written by Peter Selinger 2001-2019
</metadata>
<g transform="translate(0.000000,390.000000) scale(0.100000,-0.100000)"
fill="#000000" stroke="none">
<path d="M2286 3489 c3 -5 -2 -6 -10 -3 -9 3 -16 2 -17 -2 0 -5 -3 -22 -5 -38
-5 -28 -4 -29 28 -21 51 11 98 15 97 7 -4 -28 3 -40 21 -35 16 4 20 0 20 -21
0 -16 -6 -26 -14 -26 -15 0 -26 -21 -26 -51 0 -16 6 -20 28 -17 26 3 27 4 28
73 2 91 -15 135 -53 136 -15 1 -45 3 -65 4 -21 1 -35 -1 -32 -6z"/>
<path d="M4940 3486 c-54 -17 -81 -79 -78 -176 l3 -75 35 3 c54 4 70 12 42 23
-41 15 -69 123 -39 147 17 13 77 21 77 9 0 -17 35 -54 48 -49 19 6 14 -27 -9
-59 -24 -35 -22 -64 6 -64 43 0 54 143 17 207 -21 36 -58 49 -102 34z"/>
<path d="M3387 3309 c-9 -5 -24 -23 -32 -39 -29 -57 -11 -221 24 -219 48 2 59
27 18 42 -23 8 -37 48 -37 102 0 40 2 44 29 50 42 9 54 4 78 -35 13 -19 23
-29 23 -22 0 7 5 10 10 7 17 -10 11 -41 -10 -60 -33 -30 -22 -59 23 -63 l37
-3 0 59 c0 73 -24 146 -57 172 -28 21 -77 26 -106 9z"/>
<path d="M1400 3259 c-32 -13 -31 -11 -36 -58 -6 -53 4 -70 36 -60 16 4 19 7
8 8 -11 1 -18 9 -18 21 0 17 7 20 44 20 24 0 51 2 59 5 10 4 14 -2 14 -24 0
-47 36 -81 47 -43 19 70 18 79 -16 106 -38 29 -101 40 -138 25z"/>
<path d="M3745 3068 c3 -7 -1 -22 -9 -33 -10 -13 -15 -15 -16 -6 0 8 -6 11
-16 7 -11 -4 -18 1 -21 14 -6 24 -15 25 -54 5 -19 -11 -32 -26 -36 -45 -3 -17
-9 -30 -14 -30 -5 0 -9 -12 -8 -27 0 -16 3 -22 6 -15 6 16 23 15 23 -2 0 -8 7
-16 15 -20 9 -3 15 -18 15 -38 0 -18 9 -64 20 -103 13 -45 26 -146 38 -285
l17 -215 30 1 c17 1 35 2 40 3 6 1 9 36 6 92 -2 56 1 89 6 86 6 -4 19 0 31 8
28 20 26 103 -3 136 -11 11 -19 24 -17 27 2 4 -1 8 -7 10 -6 2 -11 -1 -11 -8
0 -6 -5 -8 -11 -5 -6 5 -4 12 8 20 12 9 15 17 8 24 -14 14 -8 294 6 285 6 -3
10 -22 9 -43 -1 -20 -2 -75 -1 -123 1 -69 4 -88 15 -88 30 0 34 192 5 210 -8
6 1 11 27 16 21 4 42 12 46 18 4 6 15 11 24 11 10 0 19 6 21 13 3 7 -5 12 -21
12 -21 0 -29 8 -42 39 -17 44 -21 46 -88 56 -37 6 -45 5 -41 -7z"/>
<path d="M4898 2883 c-2 -10 -1 -30 3 -45 4 -15 6 -66 5 -113 -3 -81 -1 -87
22 -106 40 -31 122 -22 122 13 0 10 3 17 8 15 17 -11 10 88 -9 125 -12 23 -18
52 -16 72 3 27 1 33 -12 31 -9 -1 -14 -9 -12 -16 7 -21 5 -69 -3 -76 -4 -4
-12 -1 -17 7 -8 11 -12 12 -16 3 -7 -19 -23 -16 -23 5 0 10 -5 23 -12 30 -9 9
-9 12 3 12 9 0 10 3 3 8 -5 4 -17 18 -26 30 -15 22 -17 22 -20 5z"/>
<path d="M5239 2790 c0 -8 -6 -85 -13 -170 -7 -85 -11 -166 -9 -180 13 -79 14
-103 4 -113 -18 -18 -14 -57 7 -57 10 0 24 -6 32 -12 8 -7 11 -9 7 -4 -3 5 -1
14 7 20 13 10 19 59 53 389 5 55 7 59 29 54 13 -2 25 1 27 7 2 6 2 -22 -1 -63
-4 -57 -2 -72 8 -66 9 6 10 0 5 -24 -9 -43 3 -113 18 -104 8 4 7 1 -1 -9 -15
-19 -1 -140 20 -166 9 -11 9 -14 1 -8 -9 5 -11 2 -7 -7 3 -8 0 -18 -5 -22 -6
-3 -9 -11 -6 -16 4 -5 2 -9 -4 -9 -5 0 -13 5 -16 10 -3 6 -11 10 -16 10 -6 0
-4 -7 5 -15 19 -19 70 -17 54 2 -6 8 -8 17 -4 20 4 4 11 1 16 -7 8 -12 10 -11
11 5 0 11 3 14 6 8 2 -7 9 -13 14 -13 6 0 6 8 -1 19 -14 28 -12 38 3 16 13
-16 14 -15 15 16 1 19 -5 117 -14 219 -8 102 -15 208 -16 235 0 41 -2 46 -9
26 -8 -19 -12 -21 -24 -11 -8 7 -15 19 -15 26 0 19 -15 18 -34 -2 -12 -11 -16
-12 -16 -2 0 20 -130 18 -131 -2z"/>
<path d="M985 1835 c-22 -8 -40 -15 -40 -15 -4 -1 2 -110 6 -114 3 -4 17 -2
30 3 17 7 19 10 7 10 -12 1 -18 9 -18 24 0 22 4 24 64 24 l65 1 3 -37 c2 -30
6 -35 23 -33 26 5 35 20 35 60 0 22 -6 35 -17 39 -10 4 -25 15 -33 24 -21 24
-78 31 -125 14z"/>
<path d="M2180 1822 c-17 -14 -22 -29 -23 -72 l-2 -55 85 -5 c102 -6 130 5
130 54 0 23 -9 40 -35 64 -30 27 -43 32 -84 32 -32 0 -56 -6 -71 -18z"/>
<path d="M2522 1750 c-39 -24 -49 -46 -34 -71 16 -26 15 -54 -3 -69 -36 -30
-1 -90 53 -90 l23 0 -22 29 c-26 36 -37 112 -18 127 18 14 79 26 79 16 0 -4
16 -24 36 -45 l36 -37 -26 -34 c-34 -46 -33 -56 9 -56 26 0 39 6 50 24 15 22
15 27 0 56 -10 20 -14 42 -9 64 8 44 -9 74 -51 92 -47 19 -84 18 -123 -6z"/>
<path d="M694 1705 c-16 -12 -16 -14 -3 -15 9 0 23 -7 30 -17 13 -15 12 -15
-7 -5 -34 18 -122 4 -139 -22 -19 -28 -26 -95 -14 -118 12 -23 45 -23 54 0 6
16 7 16 16 0 13 -24 46 -23 59 2 13 24 5 27 -51 17 -32 -6 -69 9 -69 28 0 8 6
15 13 15 8 0 22 9 32 20 17 19 18 19 61 -27 24 -25 44 -41 44 -35 0 7 7 12 15
12 12 0 15 -9 13 -37 -3 -36 -1 -38 28 -41 20 -2 36 4 49 18 18 20 18 20 -2
20 -35 0 -48 25 -34 69 17 57 14 88 -11 111 -26 24 -57 26 -84 5z"/>
<path d="M3327 1686 c-26 -21 -30 -32 -28 -76 1 -14 5 -20 9 -14 4 6 29 17 56
24 41 11 51 11 54 1 4 -11 6 -11 13 0 6 10 9 8 9 -8 0 -25 17 -39 43 -35 25 5
21 -25 -8 -52 -34 -32 -34 -73 0 -82 14 -4 28 -4 30 -2 3 2 5 50 6 107 1 134
-1 136 -132 155 -17 2 -36 -4 -52 -18z"/>
<path d="M2527 1485 c-17 -17 -29 -92 -22 -150 2 -22 7 -68 11 -102 3 -35 11
-63 17 -63 5 0 2 -9 -8 -20 -16 -18 -17 -32 -12 -126 4 -58 9 -110 13 -115 3
-5 57 -9 120 -9 l116 0 -7 78 c-7 91 -22 171 -35 191 -15 25 -43 -7 -36 -42 6
-31 -9 -34 -28 -4 -8 12 -7 26 3 49 8 18 13 47 12 63 -1 17 4 58 10 91 10 51
10 68 -2 95 -8 19 -14 43 -14 54 0 28 -28 30 -40 3 -14 -32 -59 -32 -63 0 -4
26 -15 28 -35 7z"/>
<path d="M3747 1473 c-14 -15 -21 -15 -37 -5 -25 15 -91 16 -124 0 -51 -23
-86 -118 -86 -236 0 -65 2 -73 18 -70 9 2 24 18 33 36 l17 32 6 -33 c8 -44 2
-57 -33 -81 l-29 -20 15 -43 c11 -31 20 -42 29 -39 8 3 21 9 29 12 19 8 19
-22 4 -277 -8 -132 -15 -188 -25 -200 -28 -31 -17 -39 55 -39 l68 0 12 93 c7
50 15 120 18 155 3 34 9 62 13 62 3 0 13 -14 21 -31 l15 -32 28 114 c16 63 34
133 41 156 11 38 11 45 -10 82 l-24 40 30 32 c16 17 29 35 29 40 0 9 20 4 57
-14 13 -6 26 -8 29 -5 26 27 2 191 -34 231 -22 25 -90 56 -122 57 -14 0 -34
-8 -43 -17z"/>
<path d="M4798 1379 c-10 -6 -18 -15 -18 -21 0 -7 5 -6 15 2 9 8 15 8 15 2 0
-6 -9 -13 -19 -17 -14 -4 -18 -12 -14 -23 3 -9 3 -14 -2 -10 -8 8 -35 -35 -35
-56 0 -6 9 -18 20 -26 11 -8 20 -21 20 -28 0 -19 11 -13 57 29 39 35 60 86 54
132 -1 11 4 17 16 17 15 0 16 -2 3 -11 -12 -9 -11 -10 8 -6 12 3 22 1 22 -4 0
-5 7 -9 16 -9 14 0 15 -8 9 -47 -8 -52 -50 -122 -96 -155 -16 -12 -29 -25 -29
-30 0 -11 124 3 131 15 4 5 9 1 12 -9 4 -18 5 -18 6 1 1 15 4 17 10 7 5 -8 9
25 10 79 1 83 -1 95 -23 124 -14 18 -39 38 -57 45 -30 13 -33 12 -51 -13 -25
-34 -56 -36 -60 -3 -2 20 -6 23 -20 15z"/>
<path d="M3813 855 l-30 -117 27 -37 c15 -20 41 -49 59 -63 19 -17 31 -36 31
-52 0 -14 5 -28 11 -31 11 -8 50 24 80 67 l19 26 -50 77 c-28 42 -54 83 -57
91 -3 7 -8 12 -12 9 -4 -2 -8 1 -9 8 0 7 -9 41 -20 76 l-18 63 -31 -117z"/>
<path d="M5196 838 c-3 -35 -7 -114 -9 -175 l-3 -113 48 0 c32 0 48 4 48 13 0
47 24 234 31 242 5 5 9 -2 9 -18 0 -15 4 -27 8 -27 4 0 8 -9 9 -21 3 -31 52
-110 65 -103 6 4 8 3 5 -3 -3 -5 9 -25 28 -43 l35 -34 34 33 35 34 -28 41
c-54 78 -71 118 -78 177 l-6 59 -113 0 -112 0 -6 -62z"/>
</g>
</svg>
